<svg width="97" height="148" fill="none" xmlns="http://www.w3.org/2000/svg"><path d="M77.326.24c-25.63 21.6-33.842 38.739-37.241 79.995C81.999 54.605 79.564 11.656 77.325.24Zm18.719 59.723c-8.632 1.357-36.78 3.231-62.144 55.107 30.596-1.218 52.658-32.093 62.144-55.107ZM17.35 143.666c14.634 11.248 46.56-1.861 60.801-21.755-6.743-2-25.811-12.199-60.8 21.755Zm8.996-37.227c0-7.261-5.89-13.15-13.15-13.15-7.261 0-13.151 5.889-13.151 13.15 0 7.26 5.89 13.15 13.15 13.15 7.262 0 13.151-5.89 13.151-13.15Z" fill="#4C000D"/></svg>