<svg width="69" height="106" fill="none" xmlns="http://www.w3.org/2000/svg"><path d="M53.74 4.04c.78 9.03.39 33.03-22.75 49.29 2.42-24.29 7.79-35.94 22.75-49.29ZM55.24.1C36.92 15.54 31.05 27.79 28.62 57.28 58.58 38.96 56.84 8.26 55.24.1Zm10.07 45.23c-7.11 15.28-20.48 31.87-37.7 34.5 14.53-27.84 29.78-33.01 37.7-34.5Zm3.31-2.55c-6.17.97-26.29 2.31-44.42 39.39 21.87-.87 37.64-22.94 44.42-39.39ZM45.4 86.93c2.96 0 5.28.57 7.12 1.15-7.47 8.85-20.21 15.5-30.18 15.5-2.58 0-4.82-.44-6.69-1.31C26.62 92.09 36.62 86.93 45.4 86.93Zm0-2c-7.36 0-18.19 3.29-33.03 17.68 2.66 2.04 6.11 2.96 9.96 2.96 11.28 0 25.91-7.91 33.51-18.51-1.96-.58-5.38-2.14-10.44-2.14v.01ZM9.4 68.6c4.08 0 7.4 3.32 7.4 7.4s-3.32 7.4-7.4 7.4S2 80.08 2 76s3.32-7.4 7.4-7.4Zm0-2C4.21 66.6 0 70.81 0 76s4.21 9.4 9.4 9.4 9.4-4.21 9.4-9.4-4.21-9.4-9.4-9.4Z" fill="#FFE1A6"/></svg>