<svg width="69" height="106" fill="none" xmlns="http://www.w3.org/2000/svg"><path d="M14.88 4.04c-.78 9.03-.39 33.03 22.75 49.29-2.42-24.29-7.79-35.94-22.75-49.29ZM13.38.1C31.7 15.54 37.57 27.79 40 57.28 10.04 38.96 11.78 8.26 13.38.1ZM3.31 45.33c7.11 15.28 20.48 31.87 37.7 34.5-14.53-27.84-29.78-33.01-37.7-34.5ZM0 42.78c6.17.97 26.29 2.31 44.42 39.39C22.55 81.3 6.78 59.23 0 42.78Zm23.22 44.15c-2.96 0-5.28.57-7.12 1.15 7.47 8.85 20.21 15.5 30.18 15.5 2.58 0 4.82-.44 6.69-1.31C42 92.09 32 86.93 23.22 86.93Zm0-2c7.36 0 18.19 3.29 33.03 17.68-2.66 2.04-6.11 2.96-9.96 2.96-11.28 0-25.91-7.91-33.51-18.51 1.96-.58 5.38-2.14 10.44-2.14v.01Zm36-16.33c-4.08 0-7.4 3.32-7.4 7.4s3.32 7.4 7.4 7.4 7.4-3.32 7.4-7.4-3.32-7.4-7.4-7.4Zm0-2c5.19 0 9.4 4.21 9.4 9.4s-4.21 9.4-9.4 9.4-9.4-4.21-9.4-9.4 4.21-9.4 9.4-9.4Z" fill="#FFE1A6"/></svg>