<svg width="97" height="148" fill="none" xmlns="http://www.w3.org/2000/svg"><path d="M18.764.24c25.63 21.6 33.841 38.739 37.24 79.995C14.092 54.605 16.526 11.656 18.765.24ZM.045 59.963c8.632 1.357 36.78 3.231 62.144 55.107C31.591 113.852 9.53 82.977.044 59.963Zm78.694 83.703c-14.634 11.248-46.56-1.861-60.801-21.755 6.743-2 25.812-12.199 60.8 21.755Zm-8.996-37.227c0-7.261 5.89-13.15 13.15-13.15 7.261 0 13.151 5.889 13.151 13.15 0 7.26-5.89 13.15-13.15 13.15-7.261 0-13.151-5.89-13.151-13.15Z" fill="#4C000D"/></svg>