<svg xmlns="http://www.w3.org/2000/svg" width="165" height="30" fill="none"><path d="M 70.355 19.386 C 70.06 19.771 69.593 19.998 69.098 19.997 L 65.288 19.997 L 65.288 15.886 L 67.655 15.886 C 68.115 15.886 68.55 16.081 68.847 16.421 L 69.611 17.292 L 69.611 13.66 L 68.847 14.532 C 68.55 14.872 68.114 15.067 67.655 15.067 L 65.288 15.067 L 65.288 10.955 L 69.016 10.955 C 69.516 10.955 69.986 11.187 70.28 11.579 L 71.689 13.448 L 71.689 10.136 L 60.838 10.136 L 61.682 11.037 C 61.943 11.316 62.088 11.679 62.088 12.056 L 62.088 18.897 C 62.088 19.272 61.943 19.634 61.682 19.913 L 60.838 20.816 L 71.781 20.816 L 71.781 17.524 L 70.357 19.386 Z M 98.222 12.716 C 97.694 11.873 96.99 11.203 96.107 10.705 C 95.226 10.206 94.25 9.958 93.182 9.958 L 92.172 9.958 C 91.104 9.958 90.134 10.206 89.258 10.705 C 88.392 11.193 87.668 11.885 87.153 12.716 C 86.625 13.559 86.361 14.489 86.361 15.51 C 86.361 16.531 86.625 17.456 87.153 18.287 C 87.68 19.118 88.382 19.776 89.258 20.265 C 90.134 20.751 91.104 20.995 92.172 20.995 L 93.182 20.995 C 94.262 20.995 95.238 20.751 96.116 20.265 C 96.992 19.778 97.694 19.121 98.222 18.287 C 98.749 17.456 99.013 16.531 99.013 15.51 C 99.013 14.489 98.749 13.559 98.222 12.716 Z M 95.37 17.887 C 95.37 18.405 95.226 18.918 94.917 19.342 C 94.454 19.981 93.76 20.31 92.832 20.337 L 92.538 20.337 C 91.607 20.31 90.913 19.981 90.452 19.342 C 90.146 18.918 90.002 18.405 90.002 17.89 L 90.002 13.063 C 90.002 12.646 90.097 12.23 90.301 11.863 C 90.746 11.059 91.45 10.657 92.411 10.657 L 92.961 10.657 C 93.922 10.657 94.626 11.059 95.071 11.863 C 95.275 12.232 95.37 12.646 95.37 13.063 L 95.37 17.892 Z M 109.274 10.136 L 110.107 11.04 C 110.364 11.317 110.506 11.676 110.505 12.049 L 110.505 16.384 L 105.063 10.136 L 100.467 10.136 L 101.31 11.037 C 101.572 11.316 101.716 11.679 101.716 12.056 L 101.716 18.897 C 101.716 19.272 101.571 19.634 101.31 19.913 L 100.467 20.816 L 103.998 20.816 L 103.162 19.911 C 102.905 19.633 102.763 19.274 102.763 18.901 L 102.763 12.413 L 110.102 20.814 L 111.556 20.814 L 111.556 12.054 C 111.556 11.678 111.7 11.314 111.961 11.035 L 112.805 10.134 L 109.274 10.134 Z M 139.729 10.136 L 139.729 13.448 L 141.1 11.591 C 141.394 11.193 141.868 10.956 142.374 10.955 L 143.628 10.955 L 143.628 18.904 C 143.628 19.275 143.487 19.636 143.23 19.913 L 142.394 20.819 L 148.076 20.819 L 147.232 19.915 C 146.971 19.637 146.826 19.275 146.826 18.899 L 146.826 10.958 L 148.081 10.958 C 148.586 10.958 149.061 11.194 149.355 11.594 L 150.726 13.451 L 150.726 10.139 L 139.729 10.139 Z M 158.697 20.532 L 158.411 20.816 L 164 20.816 L 162.803 20 C 162.611 19.869 162.451 19.698 162.338 19.499 L 156.94 10.136 L 153.175 10.136 L 154.397 12.102 C 154.486 12.244 154.558 12.398 154.591 12.562 C 154.659 12.891 154.613 13.234 154.459 13.535 L 151.331 19.636 C 151.209 19.875 151.025 20.074 150.798 20.221 L 149.877 20.816 L 152.488 20.816 L 152.433 20.706 C 152.224 20.282 152.232 19.785 152.45 19.366 L 153.075 18.181 L 158.169 18.181 L 158.844 19.268 C 158.946 19.429 158.998 19.617 158.998 19.805 C 158.998 19.94 158.971 20.072 158.921 20.195 C 158.869 20.318 158.794 20.433 158.697 20.53 Z M 153.503 17.362 L 155.417 13.73 L 157.679 17.362 Z M 77.733 11.615 C 78.171 10.972 78.818 10.652 79.669 10.652 L 80.093 10.652 C 81.22 10.652 82.317 11.078 83.382 11.933 C 83.567 12.087 83.947 12.504 84.522 13.179 L 84.54 13.198 L 84.54 9.958 L 83.838 10.481 C 83.589 10.666 83.253 10.71 82.967 10.584 C 82.572 10.412 82.163 10.271 81.745 10.163 C 81.205 10.026 80.769 9.958 80.438 9.958 L 79.426 9.958 C 78.383 9.958 77.427 10.206 76.556 10.705 C 75.685 11.203 74.993 11.873 74.478 12.716 C 73.963 13.559 73.707 14.489 73.707 15.51 C 73.707 16.531 73.963 17.454 74.478 18.278 C 74.993 19.101 75.685 19.761 76.556 20.253 C 77.427 20.746 78.383 20.992 79.426 20.992 L 80.438 20.992 C 80.782 20.992 81.232 20.925 81.79 20.787 C 82.188 20.691 82.584 20.549 82.977 20.366 C 83.278 20.224 83.639 20.267 83.898 20.477 L 84.54 20.992 L 84.54 17.736 C 84.527 17.772 84.306 18.037 83.878 18.535 C 83.656 18.783 83.492 18.952 83.38 19.034 C 82.337 19.889 81.24 20.315 80.09 20.315 L 79.796 20.315 C 78.876 20.298 78.189 19.971 77.736 19.335 C 77.437 18.913 77.295 18.408 77.295 17.895 L 77.295 13.089 C 77.295 12.567 77.435 12.049 77.733 11.611 Z M 59.644 20.816 L 55.707 17.594 C 55.707 17.594 52.915 18.015 51.69 16.828 L 53.716 16.828 C 56.162 16.828 57.792 15.105 57.745 13.482 C 57.663 10.645 54.734 10.136 53.716 10.136 L 45.628 10.136 L 46.472 11.037 C 46.733 11.316 46.878 11.679 46.877 12.056 L 46.877 18.897 C 46.877 19.272 46.733 19.634 46.472 19.913 L 45.628 20.816 L 51.31 20.816 L 50.473 19.911 C 50.217 19.633 50.075 19.274 50.075 18.901 L 50.075 16.828 L 55.115 20.816 Z M 50.08 10.955 L 52.701 10.955 C 53.136 10.955 53.743 11.199 54.052 11.497 C 54.224 11.683 54.383 11.94 54.53 12.273 C 54.672 12.593 54.746 12.998 54.749 13.482 C 54.746 13.969 54.672 14.371 54.53 14.691 C 54.383 15.024 54.224 15.281 54.052 15.467 C 53.743 15.765 53.136 16.009 52.701 16.009 L 50.08 16.009 Z M 123.775 19.386 C 123.48 19.771 123.013 19.998 122.518 19.997 L 118.708 19.997 L 118.708 15.886 L 121.074 15.886 C 121.535 15.886 121.97 16.081 122.266 16.421 L 123.03 17.292 L 123.03 13.66 L 122.266 14.532 C 121.969 14.871 121.532 15.067 121.072 15.067 L 118.708 15.067 L 118.708 10.955 L 122.436 10.955 C 122.936 10.955 123.406 11.187 123.7 11.579 L 125.108 13.448 L 125.108 10.136 L 114.258 10.136 L 115.102 11.037 C 115.363 11.316 115.508 11.679 115.507 12.056 L 115.507 18.897 C 115.507 19.272 115.363 19.634 115.102 19.913 L 114.258 20.816 L 125.201 20.816 L 125.201 17.524 L 123.777 19.386 Z M 130.842 11.615 C 131.28 10.972 131.927 10.652 132.778 10.652 L 133.201 10.652 C 134.329 10.652 135.426 11.078 136.491 11.933 C 136.675 12.087 137.056 12.504 137.631 13.179 L 137.648 13.198 L 137.648 9.958 L 136.947 10.481 C 136.698 10.666 136.362 10.71 136.076 10.584 C 135.681 10.412 135.272 10.271 134.854 10.163 C 134.314 10.026 133.878 9.958 133.547 9.958 L 132.534 9.958 C 131.492 9.958 130.536 10.206 129.665 10.705 C 128.794 11.203 128.102 11.873 127.587 12.716 C 127.072 13.559 126.816 14.489 126.816 15.51 C 126.816 16.531 127.072 17.454 127.587 18.278 C 128.102 19.101 128.794 19.761 129.665 20.253 C 130.536 20.746 131.492 20.992 132.534 20.992 L 133.547 20.992 C 133.891 20.992 134.341 20.925 134.899 20.787 C 135.297 20.691 135.692 20.549 136.086 20.366 C 136.387 20.224 136.748 20.267 137.006 20.477 L 137.648 20.992 L 137.648 17.736 C 137.636 17.772 137.414 18.037 136.986 18.535 C 136.765 18.783 136.601 18.952 136.489 19.034 C 135.446 19.889 134.349 20.315 133.199 20.315 L 132.905 20.315 C 131.984 20.298 131.298 19.971 130.845 19.335 C 130.546 18.913 130.404 18.408 130.404 17.895 L 130.404 13.089 C 130.404 12.567 130.544 12.049 130.842 11.611 Z M 37.164 17.3 L 37.961 15.433 C 37.271 15.551 35.627 15.751 34.94 15.924 C 36.052 13.364 35.592 11.601 35.129 9.445 C 33.534 10.714 31.575 12.254 30.843 13.952 C 32.429 -3.28 5.674 -3.422 7.117 13.952 C 6.386 12.258 4.427 10.714 2.834 9.445 C 2.369 11.601 1.911 13.362 3.021 15.924 C 2.344 15.753 0.677 15.549 0 15.433 C 0.839 17.478 1.71 19.598 3.546 21.175 C 3.307 21.255 1.876 21.659 1.608 21.736 C 2.979 24.001 5.649 26.123 8.369 25.773 L 8.324 25.872 C 13.911 31.34 24.045 31.344 29.634 25.874 L 29.589 25.773 C 32.312 26.123 34.979 23.998 36.356 21.736 C 36.074 21.657 34.661 21.257 34.412 21.175 C 35.659 20.082 36.6 18.627 37.164 17.3 Z M 34.362 11.555 C 34.957 13.008 33.666 17.495 30.941 18.67 C 31.252 14.999 32.008 13.477 34.362 11.555 Z M 29.679 12.56 L 29.679 12.755 C 26.59 2.19 11.375 2.181 8.284 12.755 C 8.08 -1.343 29.627 -1.647 29.679 12.56 Z M 3.598 11.555 C 5.953 13.477 6.709 15.002 7.02 18.67 C 4.295 17.497 3.001 12.998 3.598 11.555 Z M 1.879 16.866 C 2.307 16.897 3.407 17.155 3.987 17.531 C 3.987 17.533 3.989 17.533 3.989 17.533 C 4.654 17.909 5.403 18.511 6.169 19.492 C 6.667 20.115 7.182 20.963 7.578 21.748 L 7.58 21.748 C 7.58 21.748 7.585 21.76 7.588 21.765 C 4.86 21.681 2.767 18.979 1.879 16.866 Z M 8.951 24.41 C 7.13 25.263 4.681 23.866 3.519 22.375 C 4.629 21.919 5.978 22.064 7.264 22.881 L 7.267 22.881 C 7.807 23.203 8.466 23.704 9.106 24.309 C 9.056 24.347 9.004 24.379 8.949 24.41 Z M 9.053 22.088 C 8.466 21.883 8.118 21.18 8.359 20.597 L 8.359 20.595 C 8.727 19.489 10.539 19.648 10.686 20.816 C 10.853 21.688 9.88 22.428 9.053 22.088 Z M 26.267 26.973 C 26.1 26.44 24.759 22.199 24.632 21.794 C 24.455 22.062 24.239 22.36 23.992 22.666 L 25.115 27.577 C 24.396 27.912 23.647 28.192 22.865 28.411 L 22.285 24.398 C 22.002 24.622 21.7 24.839 21.384 25.024 L 21.708 28.68 C 21.004 28.815 20.279 28.902 19.543 28.931 L 19.543 25.744 C 19.262 25.8 18.985 25.853 18.42 25.744 L 18.42 28.931 C 17.684 28.904 16.96 28.818 16.255 28.68 L 16.579 25.024 C 16.263 24.839 15.962 24.622 15.678 24.398 L 15.098 28.411 C 14.317 28.192 13.568 27.912 12.849 27.577 L 13.971 22.666 C 13.725 22.36 13.508 22.062 13.331 21.794 C 13.212 22.18 11.858 26.465 11.696 26.973 C 10.998 26.565 10.337 26.1 9.72 25.583 C 10.45 23.873 11.276 21.941 12.005 20.231 C 11.878 20.156 11.776 20.108 11.659 20.046 C 8.098 17.887 11.42 18.581 11.776 15.233 C 11.607 15.447 10.228 16.837 9.208 16.929 C 9.118 16.394 9.078 15.838 9.081 15.284 C 11.181 13.853 11.97 13.46 12.615 12.357 C 11.35 12.668 10.241 13.118 9.203 13.838 C 9.345 12.969 9.613 12.104 9.989 11.307 C 11.664 11.476 13.433 11.201 14.698 10.033 C 13.234 10.141 11.821 10.625 10.35 10.623 C 14.085 4.112 23.763 3.903 27.618 10.623 C 26.145 10.63 24.732 10.139 23.271 10.033 C 24.53 11.199 26.317 11.48 27.979 11.307 C 28.358 12.113 28.622 12.964 28.766 13.838 C 27.728 13.118 26.618 12.668 25.354 12.357 C 25.998 13.46 26.787 13.853 28.887 15.284 C 28.887 15.838 28.848 16.394 28.761 16.929 C 27.74 16.837 26.362 15.447 26.192 15.233 C 26.548 18.581 29.87 17.89 26.309 20.046 C 26.192 20.108 26.09 20.156 25.963 20.231 C 26.693 21.941 27.519 23.873 28.248 25.583 C 27.632 26.101 26.971 26.566 26.272 26.973 Z M 28.011 22.081 C 26.797 21.652 27.188 19.764 28.492 19.829 C 29.793 19.819 30.107 21.686 28.905 22.086 C 28.631 22.199 28.283 22.194 28.009 22.081 Z M 34.439 22.375 C 33.28 23.863 30.826 25.265 29.004 24.41 C 28.95 24.379 28.9 24.345 28.85 24.309 C 29.495 23.707 30.149 23.201 30.689 22.881 L 30.692 22.881 C 31.976 22.064 33.33 21.919 34.437 22.375 Z M 33.658 20.323 C 32.76 21.132 31.625 21.717 30.373 21.765 C 30.376 21.76 30.378 21.753 30.381 21.748 L 30.383 21.748 C 30.776 20.961 31.291 20.123 31.789 19.494 C 31.789 19.494 31.789 19.492 31.792 19.492 C 32.558 18.511 33.31 17.909 33.972 17.533 C 33.972 17.533 33.974 17.533 33.974 17.531 C 34.556 17.155 35.649 16.895 36.082 16.866 C 35.604 17.989 34.773 19.328 33.656 20.323 Z" fill="rgb(0, 0, 0)"></path><path d="M 15.982 13.875 C 15.422 13.557 13.881 13.422 13.787 14.265 L 16.3 14.265 C 16.3 14.115 16.176 13.985 15.979 13.875 Z M 18.707 7.605 C 18.799 7.518 18.888 7.427 18.983 7.33 C 21.113 9.785 24.104 9.069 25.09 8.633 C 23.539 8.576 20.484 8.393 18.983 6.061 C 17.48 8.39 14.424 8.576 12.873 8.633 C 13.909 8.959 16.273 9.908 18.709 7.605 Z M 22.571 13.629 C 22.054 13.641 21.384 13.776 21.315 14.265 L 23.831 14.265 C 23.766 13.773 23.082 13.641 22.571 13.629 Z" fill="rgb(0, 0, 0)"></path><path d="M 20.817 14.939 C 20.232 15.091 19.953 16.486 19.807 17.179 C 18.495 13.923 21.909 10.953 24.625 13.388 C 22.982 9.669 20.573 11.095 18.983 8.448 C 17.452 10.999 14.849 9.857 13.389 13.287 C 14.974 11.979 17.818 13.008 17.798 15.175 C 16.333 14.026 15.285 16.218 12.891 14.766 C 12.249 18.217 14.715 22.206 17.338 23.943 C 21.743 26.192 25.807 18.543 25.087 14.816 C 22.673 15.852 21.768 14.698 20.819 14.939 Z M 17.796 18.494 C 17.89 18.362 18.197 18.689 18.956 18.689 C 19.433 18.689 20.08 18.203 20.185 18.323 C 20.424 18.605 19.844 19.602 19.02 19.646 C 18.184 19.689 17.654 18.694 17.798 18.494 Z M 18.107 21.936 C 18.383 21.556 19.575 21.804 20.036 21.799 C 21.15 22.522 17.97 22.895 18.107 21.936 Z M 17.204 21.293 C 17.097 21.279 17.149 20.607 19.199 20.51 C 20.105 20.469 21.153 20.925 21.091 21.221 C 21.041 21.447 17.47 21.327 17.204 21.293 Z" fill="rgb(0, 0, 0)"></path></svg>