<svg xmlns="http://www.w3.org/2000/svg" width="43" height="34" fill="none"><path d="M 41.791 18.987 L 42.665 16.871 C 41.908 17.004 40.103 17.231 39.349 17.428 C 40.57 14.524 40.065 12.525 39.557 10.08 C 37.806 11.52 35.656 13.265 34.853 15.191 C 36.593 -4.35 7.228 -4.511 8.812 15.191 C 8.009 13.271 5.859 11.52 4.111 10.08 C 3.6 12.525 3.098 14.522 4.316 17.428 C 3.573 17.234 1.743 17.002 1 16.871 C 1.92 19.19 2.876 21.593 4.892 23.382 C 4.63 23.472 3.059 23.931 2.764 24.019 C 4.269 26.586 7.2 28.993 10.186 28.597 L 10.137 28.709 C 16.269 34.909 27.391 34.914 33.526 28.711 L 33.476 28.597 C 36.465 28.993 39.393 26.583 40.903 24.019 C 40.595 23.929 39.043 23.475 38.77 23.382 C 40.138 22.142 41.171 20.492 41.791 18.987 Z M 38.715 12.473 C 39.368 14.12 37.951 19.209 34.96 20.542 C 35.301 16.379 36.131 14.653 38.715 12.473 Z M 33.575 13.612 L 33.575 13.833 C 30.185 1.853 13.485 1.842 10.093 13.833 C 9.869 -2.154 33.517 -2.498 33.575 13.612 Z M 4.95 12.473 C 7.534 14.653 8.364 16.382 8.705 20.542 C 5.714 19.211 4.294 14.109 4.95 12.473 Z M 3.062 18.496 C 3.532 18.531 4.739 18.824 5.376 19.25 C 5.376 19.252 5.378 19.252 5.378 19.252 C 6.108 19.678 6.93 20.361 7.771 21.473 C 8.317 22.18 8.883 23.142 9.317 24.032 L 9.32 24.032 C 9.32 24.032 9.325 24.046 9.328 24.051 C 6.334 23.956 4.037 20.891 3.062 18.496 Z M 10.825 27.051 C 8.825 28.017 6.138 26.433 4.862 24.742 C 6.08 24.226 7.561 24.39 8.973 25.316 L 8.976 25.316 C 9.568 25.682 10.292 26.25 10.994 26.936 C 10.94 26.98 10.882 27.015 10.822 27.051 Z M 10.937 24.417 C 10.292 24.185 9.91 23.388 10.175 22.727 L 10.175 22.724 C 10.579 21.47 12.568 21.651 12.729 22.975 C 12.912 23.964 11.844 24.803 10.937 24.417 Z M 29.83 29.957 C 29.647 29.353 28.175 24.543 28.036 24.084 C 27.842 24.387 27.604 24.726 27.334 25.073 L 28.565 30.642 C 27.776 31.022 26.954 31.339 26.096 31.587 L 25.46 27.037 C 25.148 27.291 24.818 27.537 24.471 27.747 L 24.826 31.893 C 24.053 32.046 23.258 32.145 22.45 32.177 L 22.45 28.564 C 22.141 28.627 21.838 28.687 21.218 28.564 L 21.218 32.177 C 20.409 32.147 19.615 32.049 18.842 31.893 L 19.197 27.747 C 18.85 27.537 18.519 27.291 18.208 27.037 L 17.571 31.587 C 16.714 31.339 15.892 31.022 15.102 30.642 L 16.334 25.073 C 16.064 24.726 15.826 24.387 15.632 24.084 C 15.501 24.521 14.015 29.38 13.838 29.957 C 13.071 29.495 12.345 28.967 11.669 28.381 C 12.469 26.441 13.376 24.251 14.176 22.312 C 14.037 22.227 13.925 22.172 13.797 22.101 C 9.888 19.654 13.534 20.441 13.925 16.644 C 13.739 16.887 12.226 18.463 11.106 18.567 C 11.008 17.96 10.964 17.329 10.967 16.701 C 13.272 15.079 14.138 14.634 14.846 13.383 C 13.458 13.735 12.24 14.246 11.101 15.062 C 11.256 14.076 11.551 13.096 11.964 12.192 C 13.802 12.383 15.744 12.071 17.132 10.747 C 15.526 10.87 13.974 11.419 12.36 11.416 C 16.46 4.033 27.082 3.795 31.313 11.416 C 29.696 11.424 28.145 10.867 26.541 10.747 C 27.924 12.069 29.885 12.388 31.709 12.192 C 32.125 13.105 32.415 14.071 32.572 15.062 C 31.433 14.246 30.215 13.735 28.828 13.383 C 29.535 14.634 30.401 15.079 32.706 16.701 C 32.706 17.329 32.663 17.96 32.567 18.567 C 31.447 18.463 29.934 16.887 29.748 16.644 C 30.139 20.441 33.785 19.657 29.876 22.101 C 29.748 22.172 29.636 22.227 29.497 22.312 C 30.297 24.251 31.204 26.441 32.004 28.381 C 31.328 28.968 30.603 29.495 29.836 29.957 Z M 31.745 24.409 C 30.412 23.923 30.841 21.782 32.272 21.855 C 33.7 21.844 34.045 23.961 32.725 24.415 C 32.425 24.543 32.042 24.538 31.742 24.409 Z M 38.8 24.742 C 37.527 26.431 34.834 28.02 32.835 27.051 C 32.775 27.015 32.72 26.977 32.665 26.936 C 33.373 26.253 34.091 25.679 34.684 25.316 L 34.686 25.316 C 36.096 24.39 37.582 24.226 38.797 24.742 Z M 37.942 22.415 C 36.956 23.333 35.711 23.997 34.337 24.051 C 34.34 24.046 34.342 24.038 34.345 24.032 L 34.348 24.032 C 34.779 23.139 35.345 22.189 35.891 21.476 C 35.891 21.476 35.891 21.473 35.894 21.473 C 36.735 20.361 37.56 19.678 38.286 19.252 C 38.286 19.252 38.289 19.252 38.289 19.25 C 38.928 18.824 40.127 18.529 40.603 18.496 C 40.078 19.769 39.166 21.287 37.94 22.415 Z" fill="rgb(255,225,166)"></path><path d="M 18.541 15.103 C 17.927 14.743 16.236 14.59 16.132 15.546 L 18.891 15.546 C 18.891 15.376 18.754 15.229 18.538 15.103 Z M 21.532 7.993 C 21.633 7.895 21.731 7.791 21.835 7.682 C 24.173 10.465 27.456 9.654 28.538 9.16 C 26.836 9.094 23.482 8.887 21.835 6.243 C 20.185 8.884 16.831 9.094 15.13 9.16 C 16.266 9.529 18.861 10.605 21.535 7.993 Z M 25.774 14.825 C 25.206 14.838 24.471 14.991 24.395 15.546 L 27.156 15.546 C 27.085 14.989 26.334 14.838 25.774 14.825 Z" fill="rgb(255,225,166)"></path><path d="M 23.848 16.311 C 23.206 16.483 22.9 18.064 22.739 18.851 C 21.3 15.158 25.047 11.79 28.027 14.552 C 26.225 10.334 23.581 11.951 21.835 8.949 C 20.155 11.842 17.298 10.547 15.695 14.437 C 17.435 12.954 20.557 14.12 20.535 16.578 C 18.926 15.275 17.776 17.761 15.149 16.114 C 14.444 20.028 17.151 24.551 20.03 26.521 C 24.864 29.072 29.325 20.397 28.535 16.171 C 25.886 17.346 24.892 16.037 23.851 16.311 Z M 20.532 20.342 C 20.636 20.192 20.972 20.563 21.805 20.563 C 22.33 20.563 23.04 20.012 23.154 20.148 C 23.417 20.468 22.78 21.599 21.876 21.648 C 20.958 21.697 20.377 20.569 20.535 20.342 Z M 20.874 24.245 C 21.177 23.814 22.485 24.095 22.991 24.09 C 24.214 24.909 20.724 25.332 20.874 24.245 Z M 19.882 23.516 C 19.765 23.5 19.822 22.738 22.073 22.628 C 23.067 22.582 24.217 23.098 24.149 23.434 C 24.094 23.691 20.175 23.554 19.882 23.516 Z" fill="rgb(255,225,166)"></path></svg>