<svg width="35" height="36" fill="none" xmlns="http://www.w3.org/2000/svg"><path d="M15.155 3.73a2.897 2.897 0 0 1 4.69 0 2.897 2.897 0 0 0 3.397.998 2.897 2.897 0 0 1 3.945 2.536 2.897 2.897 0 0 0 2.319 2.676 2.897 2.897 0 0 1 1.948 4.265 2.897 2.897 0 0 0 .503 3.505 2.897 2.897 0 0 1-.667 4.642 2.897 2.897 0 0 0-1.47 3.22 2.897 2.897 0 0 1-3.072 3.544 2.897 2.897 0 0 0-2.978 1.915 2.897 2.897 0 0 1-4.5 1.32 2.897 2.897 0 0 0-3.54 0 2.897 2.897 0 0 1-4.5-1.32 2.897 2.897 0 0 0-2.978-1.915 2.897 2.897 0 0 1-3.071-3.544 2.897 2.897 0 0 0-1.471-3.22 2.897 2.897 0 0 1-.668-4.642 2.897 2.897 0 0 0 .504-3.505A2.897 2.897 0 0 1 5.494 9.94a2.897 2.897 0 0 0 2.32-2.676 2.897 2.897 0 0 1 3.944-2.536 2.897 2.897 0 0 0 3.397-.997Z" fill="#0195F5"/><path d="m12.639 18 3.126 3.126a.972.972 0 0 0 1.442-.074l5.64-6.941" stroke="#fff" stroke-width="1.944" stroke-linecap="round"/></svg>